<?xml version="1.0" standalone="no"?>
<!DOCTYPE svg PUBLIC "-//W3C//DTD SVG 1.1//EN" "http://www.w3.org/Graphics/SVG/1.1/DTD/svg11.dtd" >
<!--
2016-10-25: Created.
-->
<svg xmlns="http://www.w3.org/2000/svg">
<metadata>
Created by FontForge 20120731 at Tue Oct 25 08:13:50 2016
 By Apache
Created by Apache with FontForge 2.0 (http://fontforge.sf.net)
</metadata>
<defs>
<font id="Flaticon" horiz-adv-x="512" >
  <font-face 
    font-family="Flaticon"
    font-weight="500"
    font-stretch="normal"
    units-per-em="512"
    panose-1="2 0 6 3 0 0 0 0 0 0"
    ascent="448"
    descent="-64"
    bbox="-0.00728559 -64.0051 512.008 448.009"
    underline-thickness="25.6"
    underline-position="-51.2"
    unicode-range="U+0020-F130"
  />
    <missing-glyph />
    <glyph glyph-name="space" unicode=" " horiz-adv-x="200" 
 />
    <glyph glyph-name="uniF102" unicode="&#xf102;" 
d="M486.561 -64h-444.104c-16.5615 0 -30.0361 13.4766 -30.0361 30.0381v468.261c0 18.2676 36.042 18.2676 36.042 0v-462.255h438.098c17.3623 0 17.3623 -36.0439 0.000976562 -36.0439zM466.774 -5.50586h-113.978c-4.95605 0 -9.01172 4.05469 -9.01172 9.01074
v320.587c0 4.95605 4.05566 9.01172 9.01172 9.01172h113.978c4.95605 0 9.01172 -4.05566 9.01172 -9.01172v-320.587c0 -4.95605 -4.05566 -9.01074 -9.01172 -9.01074zM312.935 -5.50586v0l-93.1104 -0.00195312c-4.95605 0 -9.01172 4.05371 -9.01172 9.00977v392.677
c0 4.95605 4.05566 9.01074 9.01172 9.01074h93.1104c4.95605 0 9.0127 -4.05469 9.0127 -9.01074v-392.674c0 -4.95605 -4.05664 -9.01074 -9.0127 -9.01074zM179.963 -5.50586v0l-101.375 -0.00195312c-4.95508 0 -9.01074 4.05371 -9.01074 9.00977v231.982
c0 4.95605 4.05566 9.01172 9.01074 9.01172h101.375c4.95605 0 9.01074 -4.05566 9.01074 -9.01172v-231.979c0 -4.95605 -4.05469 -9.01074 -9.01074 -9.01074z" />
    <glyph glyph-name="uniF101" unicode="&#xf101;" 
d="M493.833 446.891c10.501 4.59473 21.002 -5.90625 17.0645 -17.0635l-202.144 -485.669c-4.59375 -11.8135 -21.6582 -10.501 -24.2832 1.96875l-50.5361 223.802l-223.801 50.5352c-12.4707 3.28223 -13.127 20.3457 -1.96973 24.9404zM55.4189 236.872
l185.079 -41.3477l202.8 202.8zM300.222 -7.93164l160.796 387.879l-202.799 -202.8z" />
    <glyph glyph-name="uniF114" unicode="&#xf114;" 
d="M499.81 225.496c6.73438 0 12.1904 -5.45605 12.1904 -12.1904v-43.4258c0 -6.73438 -5.45605 -12.1904 -12.1904 -12.1904h-32.168v-32.1699c0 -6.73242 -5.45703 -12.1904 -12.1904 -12.1904h-43.4258c-6.73438 0 -12.1904 5.45801 -12.1904 12.1904v32.1699h-32.1689
c-6.7334 0 -12.1904 5.45605 -12.1904 12.1904v43.4258c0 6.73438 5.45703 12.1904 12.1904 12.1904h32.1689v32.1699c0 6.73438 5.45605 12.1904 12.1904 12.1904h43.4258c6.7334 0 12.1904 -5.45605 12.1904 -12.1904v-32.1699h32.168zM165.638 278.698
c-21.7822 0 -43.1904 -8.84961 -58.7324 -24.2764c-33.0127 -32.7812 -33.3867 -90.6924 -0.794922 -123.929c15.6582 -15.9707 38.0459 -25.1318 61.4238 -25.1318c22.8926 0 44.2256 8.87305 58.5312 24.3438c6.55859 7.08984 11.7451 14.6982 15.0361 21.9141h-71.8193
c-6.73438 0 -12.1904 5.45801 -12.1904 12.1904v48.7324c0 6.73242 5.45605 12.1904 12.1904 12.1904h140.876c6.00293 0 11.1143 -4.37207 12.043 -10.3037l1.77148 -11.3008c0.107422 -0.676758 0.15625 -1.35938 0.146484 -2.04395l-0.422852 -33.0684
c-0.00292969 -0.349609 -0.0244141 -0.699219 -0.0585938 -1.04883c-3.65234 -36.8096 -17.5479 -69.0088 -40.1914 -93.1152c-28.5859 -30.4336 -70.7646 -47.8887 -115.72 -47.8887c-45.4385 0 -89.1797 17.7588 -120.01 48.7207
c-31.0713 31.2012 -48.0176 73.293 -47.7139 118.518c0.302734 45.2148 17.8086 87.0645 49.2871 117.84c31 30.3057 72.0234 46.998 115.514 46.998c21.0967 0 41.7178 -3.91895 61.291 -11.6455c0.311523 -0.124023 0.619141 -0.260742 0.919922 -0.410156
l22.7207 -11.2188c0.518555 -0.254883 1.02148 -0.548828 1.49902 -0.875977l23.4541 -16.085c2.99707 -2.05566 4.92188 -5.34082 5.24707 -8.95996c0.327148 -3.62012 -0.978516 -7.19629 -3.56152 -9.75488l-40.3555 -39.9775
c-4.1543 -4.11621 -10.6406 -4.69922 -15.4639 -1.39941l-13.8369 9.46777c-12.1104 7.53711 -26.3086 11.5186 -41.0801 11.5186z" />
    <glyph glyph-name="uniF11D" unicode="&#xf11d;" 
d="M309.328 301.961c0 30.8073 15.4037 46.2109 46.2109 46.2109s46.2109 -15.4037 46.2109 -46.2109c0 -30.8073 -15.4037 -46.211 -46.2109 -46.2109c-30.8073 0 -46.2109 15.4037 -46.2109 46.2109zM100.066 230.975c43.1158 41.2707 64.994 62.2169 65.6348 62.8389
l0.00976562 0.0078125c5.75142 5.50433 12.5141 7.38779 20.2881 5.65039l89.8418 -21.4053l-27.3604 13.8213c6.67751 4.884 14.1513 6.78268 22.4214 5.69604s15.0202 -4.88083 20.2505 -11.3826l34.8076 -43.2686l61.3047 -9.80957l81.5 51.3047
c5.21042 3.27936 10.8175 4.23642 16.8213 2.87122s10.646 -4.65302 13.9268 -9.8634c3.27939 -5.21042 4.23648 -10.8176 2.87122 -16.8217c-1.36526 -6.00404 -4.65305 -10.6462 -9.8634 -13.9264l-88.6084 -55.7793
c-4.73904 -2.98193 -9.87283 -4.03076 -15.4014 -3.14648l-67.6533 10.8252l-26.0938 -20.9912c-12.0181 6.43555 -24.9387 9.65332 -38.7617 9.65332c-8.86588 0 -17.4951 -1.38542 -25.8877 -4.15625c-12.2819 -4.05339 -23.026 -10.6833 -32.2324 -19.8896
c-2.79948 -2.79948 -6.1927 -4.19922 -10.1797 -4.19922c-3.98828 0 -7.38216 1.39973 -10.1816 4.19922l-0.203125 0.194336c-9.13535 9.07375 -19.7652 15.6239 -31.8896 19.6504c0.555527 0.521393 17.2525 16.5139 50.0908 47.9775l73.8428 2.5791l-82.752 18.5283
h-0.000976562l-55.6914 -53.3574c-4.53007 -4.28111 -9.86364 -6.33824 -16.0007 -6.17139s-11.312 2.44859 -15.5247 6.84521c-4.25982 4.44624 -6.32386 9.74748 -6.19214 15.9037s2.42071 11.3634 6.86694 15.6217zM97.2334 127.25
c-12.7192 -12.7202 -28.0975 -19.0803 -46.1349 -19.0803s-33.4159 6.36011 -46.1356 19.0803c-3.30957 3.30957 -4.96436 7.30437 -4.96436 11.9844s1.65479 8.6748 4.96436 11.9844c3.30859 3.30957 7.30322 4.96436 11.9839 4.96436s8.67529 -1.65479 11.9839 -4.96436
c6.12145 -6.12044 13.5104 -9.18066 22.167 -9.18066c8.65797 0 16.0466 3.06023 22.166 9.18066c12.7197 12.7197 28.0981 19.0796 46.1351 19.0796c18.037 0 33.4152 -6.35986 46.1344 -19.0796c6.12044 -6.12044 13.5088 -9.18066 22.165 -9.18066
c8.65726 0 16.0456 3.06023 22.165 9.18066c12.7202 12.7197 28.0989 19.0796 46.136 19.0796s33.4153 -6.35986 46.1345 -19.0796c6.12305 -6.12044 13.5121 -9.18066 22.167 -9.18066c8.65689 0 16.0456 3.06023 22.166 9.18066
c12.7386 12.7396 28.1168 19.1094 46.1348 19.1094c18.0166 0 33.3951 -6.3698 46.1357 -19.1094c6.12045 -6.12044 13.5088 -9.18066 22.165 -9.18066c8.65793 0 16.0466 3.06023 22.166 9.18066c3.30957 3.30957 7.3046 4.96436 11.9851 4.96436
s8.67505 -1.65479 11.9836 -4.96436c3.30957 -3.30957 4.96436 -7.30437 4.96436 -11.9844s-1.65479 -8.6748 -4.96436 -11.9844c-12.7192 -12.7202 -28.0973 -19.0803 -46.1343 -19.0803c-18.0369 0 -33.415 6.36011 -46.1343 19.0803
c-6.12045 6.12044 -13.5088 9.18066 -22.165 9.18066c-8.65689 0 -16.0456 -3.06023 -22.166 -9.18066c-12.7205 -12.72 -28.0991 -19.0799 -46.1359 -19.0796s-33.4147 6.36013 -46.1337 19.0796c-6.12347 6.12044 -13.5125 9.18066 -22.167 9.18066
c-8.65791 0 -16.0466 -3.06023 -22.166 -9.18066c-12.7382 -12.7402 -28.1161 -19.1104 -46.1338 -19.1104c-18.0169 0 -33.3955 6.37012 -46.1357 19.1104c-6.12245 6.12044 -13.5108 9.18066 -22.165 9.18066c-8.65755 0 -16.0465 -3.06023 -22.167 -9.18066z
M483.067 78.9043c3.30957 3.30957 7.30441 4.96436 11.9845 4.96436s8.67419 -1.65479 11.9823 -4.96436c3.30957 -3.30957 4.96436 -7.30436 4.96436 -11.9844c0 -4.68001 -1.65479 -8.6748 -4.96436 -11.9844c-12.7192 -12.7197 -28.0975 -19.0796 -46.1348 -19.0796
s-33.4155 6.35986 -46.1348 19.0796c-6.11945 6.12044 -13.5078 9.18066 -22.165 9.18066c-8.65625 0 -16.0446 -3.06022 -22.165 -9.18066c-12.7208 -12.7196 -28.0997 -19.0794 -46.1367 -19.0792s-33.4149 6.35987 -46.1338 19.0792
c-6.12247 6.12044 -13.5111 9.18066 -22.166 9.18066c-8.65802 0 -16.047 -3.06022 -22.167 -9.18066c-12.7376 -12.7396 -28.1155 -19.1094 -46.1338 -19.1094c-18.0171 0 -33.3953 6.36979 -46.1348 19.1094c-6.12144 6.12044 -13.5101 9.18066 -22.166 9.18066
c-8.6569 0 -16.0456 -3.06022 -22.166 -9.18066c-12.7192 -12.7197 -28.0974 -19.0796 -46.1344 -19.0796c-18.037 0 -33.4154 6.35986 -46.1351 19.0796c-3.30908 3.30957 -4.96362 7.30436 -4.96362 11.9844c0 4.68002 1.65454 8.6748 4.96362 11.9844
c3.30908 3.30957 7.304 4.96436 11.9847 4.96436c4.68074 0 8.67541 -1.65479 11.984 -4.96436c6.12246 -6.12045 13.5115 -9.18066 22.167 -9.18066c8.65589 0 16.0446 3.06022 22.166 9.18066c12.7192 12.7202 28.0975 19.0803 46.1348 19.0803
c18.0373 0 33.4155 -6.36011 46.1348 -19.0803c6.12144 -6.12045 13.5098 -9.18066 22.165 -9.18066s16.0436 3.06022 22.165 9.18066c12.7202 12.7202 28.0989 19.0803 46.136 19.0803s33.4153 -6.36011 46.1345 -19.0803
c6.12347 -6.12045 13.5121 -9.18066 22.166 -9.18066c8.65656 0 16.0456 3.06022 22.167 9.18066c12.7382 12.7402 28.1165 19.1104 46.1348 19.1104c18.0169 0 33.3955 -6.37012 46.1357 -19.1104c6.12146 -6.12045 13.5098 -9.18066 22.165 -9.18066
c8.65588 0 16.0446 3.06022 22.166 9.18066z" />
    <glyph glyph-name="uniF12D" unicode="&#xf12d;" 
d="M512 350.789c-14.082 -21.0635 -31.8906 -39.5635 -52.417 -54.3721c0.201172 -4.50684 0.305664 -9.03613 0.305664 -13.5908c0 -138.809 -105.657 -298.87 -298.867 -298.87c-59.3203 0 -114.534 17.3896 -161.021 47.1963
c8.21777 -0.974609 16.5791 -1.4707 25.0576 -1.4707c49.2148 0 94.5078 16.791 130.458 44.9668c-45.9658 0.844727 -84.7578 31.2188 -98.126 72.9492c6.41504 -1.22852 12.9951 -1.88867 19.7637 -1.88867c9.58008 0 18.8613 1.28809 27.6748 3.6875
c-48.0527 9.65137 -84.2607 52.1055 -84.2607 102.999c0 0.443359 0 0.882812 0.00976562 1.32129c14.1611 -7.86816 30.3574 -12.5928 47.5762 -13.1387c-28.1855 18.8369 -46.7295 50.9883 -46.7295 87.4326c0 19.251 5.18066 37.2949 14.2227 52.8086
c51.8086 -63.5527 129.209 -105.371 216.509 -109.753c-1.79102 7.68945 -2.71973 15.7061 -2.71973 23.9395c0 58.0098 47.0303 105.038 105.041 105.038c30.2129 0 57.5137 -12.7549 76.6738 -33.1699c23.9277 4.70996 46.4053 13.4512 66.7051 25.4902
c-7.84473 -24.5303 -24.5 -45.1152 -46.1865 -58.1152c21.248 2.53906 41.4902 8.18652 60.3301 16.54z" />
    <glyph glyph-name="uniF122" unicode="&#xf122;" 
d="M460.8 396.8c28.1602 0 51.2002 -23.04 51.2002 -51.2002v-307.199c0 -28.1602 -23.04 -51.2002 -51.2002 -51.2002h-409.6c-28.1602 0 -51.2002 23.04 -51.2002 51.2002v307.199c0 28.1602 23.04 51.2002 51.2002 51.2002h409.6zM460.8 38.4004v307.199h-30.7197
l-174.08 -107.52l-174.08 107.52h-30.7197v-307.199h51.2002v225.279l153.6 -97.2793l153.6 97.2793v-225.279h51.2002z" />
    <glyph glyph-name="uniF12C" unicode="&#xf12c;" 
d="M506.514 59.7148c9.67188 -18.2715 6.34961 -40.3877 -8.28613 -55.0137l-24.0801 -24.0811c-29.5859 -29.585 -62.5029 -44.5918 -97.8115 -44.5918h-0.00976562c-48.0088 0 -100.005 27.6592 -154.544 82.1982l-139.575 139.575
c-43.0918 43.082 -69.5361 84.8174 -78.6094 124.037c-10.8779 47.0596 2.91406 90.2373 41.0137 128.327l24.0898 24.0801c8.8457 8.83691 20.6152 13.7158 33.126 13.7158c7.59277 0 15.167 -1.87891 21.8877 -5.43848
c36.0107 -19.0498 75.0977 -85.2451 76.7402 -88.0547c6.9668 -12.2158 9.13965 -24.7539 6.18848 -35.4131c-2.22168 -8.01074 -7.29004 -14.541 -14.6748 -18.9355c-11.5791 -9.69141 -25.1143 -21.708 -27.2402 -24.6406
c-15.1963 -22.4287 -13.4121 -40.3018 5.99805 -59.7119l109.021 -109.031c19.5342 -19.5342 37.1885 -21.2705 59.7402 -5.9707c2.91406 2.09766 14.9219 15.6328 24.6025 27.2129c6.12207 10.2891 16.2314 15.9463 28.5801 15.9463
c8.30469 0 17.1797 -2.5625 25.6846 -7.40332c2.91406 -1.70898 69.0986 -40.7764 88.1582 -76.8066z" />
    <glyph glyph-name="uniF110" unicode="&#xf110;" 
d="M416 448c53.0312 0 96 -42.9688 96 -96v-320c0 -53.0312 -42.9688 -96 -96 -96h-320c-53.0312 0 -96 42.9688 -96 96v320c0 53.0312 42.9688 96 96 96h320zM402.983 172.269l6.51855 59.7461h-54.4297l0.0986328 33.5361c0 15.9512 1.49609 24.4775 24.3789 24.4775
h34.5996v59.5098h-59.5693c-58.7822 0 -79.498 -29.6172 -79.5176 -79.4971v-38.0459h-31.0352v-59.7266h31.0352v-177.31h80.0098v177.31h47.9111z" />
    <glyph glyph-name="uniF10A" unicode="&#xf10a;" 
d="M320 448v-160h-160v-160h-160v320h320zM192 -64v320h320v-320h-320z" />
    <glyph glyph-name="uniF11B" unicode="&#xf11b;" 
d="M506.896 383.583c3.36523 1.2627 6.41602 -2.52441 4.52246 -5.57422l-225.633 -372.06c-3.68262 -5.89062 -11.4658 -7.57324 -17.1465 -3.68164l-62.168 42.3926l-63.1143 -41.8662c-4.94336 -3.26074 -11.5703 0.31543 -11.5703 6.20605v86.6768l286.538 213.958
l-338.503 -178.509l-74.5801 50.9121c-8.09961 5.4707 -6.52148 17.8828 2.73535 21.249z" />
    <glyph glyph-name="uniF12F" unicode="&#xf12f;" 
d="M36.3975 192.01c0 31.8359 6.83398 62.0723 18.999 89.3652l104.771 -287.016c-73.2705 35.6074 -123.77 110.734 -123.77 197.65zM404.248 203.109c0 -18.8213 -5.56934 -42.4609 -16.708 -70.999l-21.9219 -73.1904l-79.3525 236.062
c13.1924 0.691406 25.1211 2.07422 25.1211 2.07422c11.8301 1.40234 10.4473 18.8008 -1.40234 18.1094c0 0 -35.5684 -2.80371 -58.5361 -2.80371c-21.5664 0 -57.8262 2.80371 -57.8262 2.80371c-11.8301 0.710938 -13.2324 -17.3984 -1.38281 -18.1094
c0 0 11.2178 -1.38281 23.0479 -2.07422l34.2051 -93.75l-48.0693 -144.13l-79.9648 237.88c13.2119 0.691406 25.1211 2.07422 25.1211 2.07422c11.8301 1.40234 10.4277 18.8008 -1.40234 18.1094c0 0 -35.5488 -2.80371 -58.5166 -2.80371
c-4.12793 0 -8.98633 0.0986328 -14.1406 0.256836c39.2617 59.6426 106.765 99.0029 183.49 99.0029c57.1543 0 109.214 -21.8428 148.298 -57.6484c-0.967773 0.0400391 -1.89648 0.158203 -2.86426 0.158203c-21.5664 0 -36.8721 -18.8018 -36.8721 -38.9658
c0 -18.1094 10.4482 -33.3955 21.5664 -51.5059c8.37402 -14.6143 18.1104 -33.416 18.1104 -60.5508zM259.861 172.794l67.5029 -184.933c0.454102 -1.06641 1.00684 -2.07324 1.58008 -3.02148c-22.8301 -8.01758 -47.3789 -12.4424 -72.9346 -12.4424
c-21.5664 0 -42.3623 3.16016 -62.0518 8.94727zM448.703 297.372c17.1426 -31.2627 26.8994 -67.167 26.8994 -105.362c0 -81.0117 -43.9033 -151.733 -109.194 -189.811l67.0684 193.938c12.5215 31.3223 16.708 56.3643 16.708 78.6416
c0 8.09668 -0.513672 15.6016 -1.48145 22.5928zM0 192.01c0 141.168 114.842 255.99 256.01 255.99s255.99 -114.842 255.99 -255.99s-114.822 -256.01 -256.01 -256.01c-141.148 0 -255.99 114.861 -255.99 256.01zM11.7314 192.01
c0 -134.67 109.608 -244.259 244.278 -244.259c134.671 0 244.259 109.589 244.259 244.259s-109.588 244.259 -244.278 244.259s-244.259 -109.589 -244.259 -244.259z" />
    <glyph glyph-name="uniF129" unicode="&#xf129;" 
d="M512 10.4062c-11.1006 0 -21.5068 2.42773 -31.2197 7.28516c-11.1016 4.85645 -22.2012 7.28418 -33.3008 7.28418c-11.1006 0 -21.8535 -2.42773 -32.2598 -7.28418c-9.71289 -4.85742 -20.1191 -7.28516 -31.2197 -7.28516s-21.5068 2.42773 -31.2197 7.28516
c-11.1016 4.85645 -22.2021 7.28418 -33.3008 7.28418c-11.1006 0 -21.8535 -2.42773 -32.2598 -7.28418c-9.71289 -4.85742 -20.1191 -7.28516 -31.2197 -7.28516s-21.5068 2.42773 -31.2197 7.28516c-10.4062 4.85645 -21.1592 7.28418 -32.2598 7.28418
s-22.2002 -2.42773 -33.3008 -7.28418c-9.71289 -4.85742 -20.1191 -7.28516 -31.2197 -7.28516s-21.5068 2.42773 -31.2197 7.28516c-10.4062 4.85645 -21.1592 7.28418 -32.2598 7.28418s-21.8535 -2.42773 -32.2607 -7.28418
c-10.4062 -4.85742 -21.1592 -7.28516 -32.2598 -7.28516v46.8291c11.1006 0 21.8535 2.42871 32.2598 7.28516c10.4072 4.85645 21.1602 7.28418 32.2607 7.28418s21.8535 -2.42773 32.2598 -7.28418s20.9873 -7.28516 31.7402 -7.28516s20.9863 2.42871 30.6992 7.28516
c10.4062 4.85645 21.333 7.28418 32.7803 7.28418s22.374 -2.42773 32.7803 -7.28418s20.9873 -7.28516 31.7402 -7.28516c10.7539 0 20.9863 2.42871 30.6992 7.28516c10.4062 4.85645 21.5068 7.28418 33.3008 7.28418c10.4062 0 21.1592 -2.42773 32.2598 -7.28418
c9.71484 -4.85645 19.9473 -7.28516 30.6992 -7.28516c10.7529 0 21.333 2.42871 31.7402 7.28516c10.4062 4.85645 21.333 7.28418 32.7803 7.28418s22.374 -2.42773 32.7803 -7.28418c9.71289 -4.85645 20.1191 -7.28516 31.2197 -7.28516v-46.8291zM438.114 143.609
c-18.0381 0 -32.7812 5.72363 -44.2285 17.1709c-11.4463 11.4473 -17.1699 25.8428 -17.1699 43.1875c0 16.6504 5.89746 30.873 17.6904 42.666c11.7939 11.7939 26.1904 17.6914 43.1875 17.6914s31.3926 -5.89746 43.1865 -17.6914
c11.7939 -11.793 17.6914 -26.0156 17.6914 -42.666s-5.89746 -30.873 -17.6914 -42.667s-26.0156 -17.6914 -42.666 -17.6914zM83.252 109.269l178.992 97.8213l-47.8701 85.333l-1.04102 1.56055l-1.04004 1.56152c-4.16309 10.4062 -3.64258 19.9463 1.56055 28.6172
c5.20312 8.67188 11.6211 14.0488 19.252 16.1309l182.114 32.2598c0.694336 0.694336 2.08105 1.04102 4.16211 1.04102c9.01758 0 16.9961 -3.46875 23.9355 -10.4062c6.9375 -6.93848 10.4062 -14.916 10.4062 -23.9355s-2.77539 -16.6504 -8.3252 -22.8945
c-5.5498 -6.24316 -12.834 -10.0596 -21.8535 -11.4473l-117.594 -21.8535l100.943 -181.073c-7.62793 -2.77539 -15.2607 -4.16211 -22.8945 -4.16211c-11.1006 0 -21.5068 2.42773 -31.2197 7.28418c-11.1006 4.85742 -22.0273 7.28516 -32.7803 7.28516
s-21.6797 -2.42773 -32.7803 -7.28516c-9.71289 -4.85645 -19.9453 -7.28418 -30.6992 -7.28418c-10.7529 0 -21.334 2.42773 -31.7402 7.28418c-11.1006 4.85742 -22.0273 7.28516 -32.7803 7.28516s-21.6797 -2.42773 -32.7803 -7.28516
c-9.71289 -4.85645 -19.9463 -7.28418 -30.6992 -7.28418s-21.334 2.42773 -31.7402 7.28418c-4.85645 2.08203 -9.36523 3.46875 -13.5283 4.16309z" />
    <glyph glyph-name="uniF113" unicode="&#xf113;" 
d="M192 235.886v-226.743h-18.2852v320.001v118.856l256 -109.714zM256 100.571c117.028 0 210.288 -36.5713 210.288 -82.2852s-93.2578 -82.2852 -210.286 -82.2852s-210.286 36.5713 -210.286 82.2852c0 32.9141 43.8857 58.5146 109.714 73.1426v-51.1992
c-10.9707 -5.48535 -18.2852 -12.8008 -18.2852 -21.9434c0 -14.6289 20.1143 -27.4287 45.7139 -27.4287c25.5986 0 45.7139 12.7998 45.7139 27.4287c0 9.14258 -7.31445 16.458 -18.2861 21.9434v58.5137c14.6279 1.82812 29.2568 1.82812 45.7139 1.82812z
M329.143 9.14258c14.6289 0 27.4297 7.31445 27.4297 18.2861s-12.8008 18.2852 -27.4297 18.2852c-14.6279 0 -27.4287 -7.31348 -27.4287 -18.2852s12.8008 -18.2861 27.4287 -18.2861z" />
    <glyph glyph-name="uniF12A" unicode="&#xf12a;" 
d="M314.661 235.695c0 55.5176 27.7588 83.2764 83.2764 83.2764s83.2764 -27.7588 83.2764 -83.2764s-27.7588 -83.2764 -83.2764 -83.2764s-83.2764 27.7588 -83.2764 83.2764zM218.554 220.152l-52.6045 39.2646l-118.358 -23.248l14.3164 65.6689l113.814 32.2842
l99.6221 -74.3584l72.9131 -123.208c-2.95248 -1.85887 -6.61395 -4.53758 -10.9844 -8.03613c-5.98727 -4.79297 -11.3157 -7.18945 -15.9854 -7.18945c-4.6748 0 -10.0042 2.39648 -15.9883 7.18945c-15.3487 12.2865 -31.3526 18.4297 -48.0117 18.4297
c-16.6624 0 -32.6663 -6.14323 -48.0117 -18.4297c-5.98817 -4.79297 -11.3169 -7.18945 -15.9863 -7.18945c-4.67308 0 -10.0012 2.39648 -15.9844 7.18945c-15.347 12.2865 -31.3506 18.4297 -48.0107 18.4297c-5.15222 0 -10.1571 -0.498047 -15.0146 -1.49414z
M463.984 108.306c15.3495 12.2871 31.3547 18.43 48.0156 18.4287v-51.2373c-4.67325 0 -10.004 -2.39616 -15.9922 -7.18848c-15.345 -12.2865 -31.3495 -18.4297 -48.0137 -18.4297c-16.6677 0 -32.6732 6.14323 -48.0166 18.4297
c-5.98868 4.79232 -11.3188 7.18848 -15.9902 7.18848c-4.67233 0 -10.0017 -2.39584 -15.9883 -7.1875c-15.3438 -12.2871 -31.347 -18.4307 -48.0098 -18.4307c-16.6663 0 -32.6709 6.14323 -48.0137 18.4297c-5.98758 4.79232 -11.3167 7.18848 -15.9873 7.18848
c-4.67123 0 -9.99968 -2.39584 -15.9854 -7.1875c-15.3438 -12.2871 -31.3474 -18.4307 -48.0107 -18.4307c-16.664 0 -32.668 6.14355 -48.0117 18.4307c-5.98697 4.79166 -11.3151 7.1875 -15.9844 7.1875c-4.67368 0 -10.0028 -2.39616 -15.9873 -7.18848
c-15.345 -12.2865 -31.3489 -18.4297 -48.0117 -18.4297c-16.665 0 -32.6686 6.14355 -48.0107 18.4307c-5.98871 4.79166 -11.3175 7.1875 -15.9863 7.1875v51.2373c16.6626 0 32.6662 -6.14291 48.0107 -18.4287c5.98729 -4.79297 11.3161 -7.18945 15.9863 -7.18945
c4.67221 0 10.0013 2.39648 15.9873 7.18945c15.3462 12.2858 31.3501 18.4287 48.0117 18.4287c16.6609 0 32.6645 -6.14291 48.0107 -18.4287c5.98642 -4.79297 11.3142 -7.18945 15.9834 -7.18945c4.67329 0 10.0021 2.39648 15.9863 7.18945
c15.3462 12.2858 31.3498 18.4287 48.0107 18.4287c16.6632 0 32.6671 -6.14291 48.0117 -18.4287c5.9899 -4.79297 11.3193 -7.18945 15.9883 -7.18945c4.67416 0 10.0029 2.39648 15.9863 7.18945c15.3462 12.2858 31.3501 18.4287 48.0117 18.4287
c16.6645 0 32.6691 -6.14291 48.0137 -18.4287c5.9899 -4.79297 11.321 -7.18945 15.9932 -7.18945c4.67545 0 10.0062 2.39648 15.9922 7.18945z" />
    <glyph glyph-name="uniF11F" unicode="&#xf11f;" 
d="M483.818 419.831c18.7744 -18.7773 28.1631 -41.3906 28.1631 -67.8291v-320.003c0 -26.4404 -9.38867 -49.0537 -28.166 -67.832c-18.7705 -18.7773 -41.3848 -28.166 -67.8242 -28.166h-241.65c18.8877 27.1123 30.8867 50.4404 35.9971 69.9971
c2.00098 7.55566 7.88867 30.7705 17.6641 69.6611c4.66797 -8.66992 12.834 -16.1133 24.499 -22.334c11.6699 -6.21973 24.1592 -9.33203 37.5029 -9.33203c40.2158 0 73.0488 16.3916 98.4912 49.1689c25.4414 32.7734 38.1621 74.2715 38.1621 124.495
c0 18.6631 -3.8877 36.7207 -11.6699 54.1602c-7.77051 17.4463 -18.4951 32.8887 -32.1582 46.334c-13.6719 13.4434 -30.6162 24.2188 -50.8359 32.3271c-20.2236 8.1084 -42.1094 12.1719 -65.6699 12.1719c-23.1016 0 -44.7158 -3.16797 -64.8223 -9.5
c-20.1084 -6.33301 -37.1113 -14.834 -50.9971 -25.4951c-13.8906 -10.668 -25.8311 -22.833 -35.8301 -36.5029c-9.99805 -13.6641 -17.3867 -27.8848 -22.165 -42.665c-4.77832 -14.7705 -7.16797 -29.498 -7.16797 -44.166c0 -22.6611 4.3877 -42.665 13.1641 -59.9932
c8.77441 -17.332 21.7236 -29.5615 38.833 -36.6689c2.88867 -1.11035 5.49805 -1.11035 7.83496 0c2.33496 1.11523 3.94434 3.22168 4.83496 6.33691c2.22168 9.77344 3.8877 16.5488 5 20.3281c1.33398 5.11328 0.109375 9.78418 -3.66602 14.0039
c-11.1094 13.7793 -16.668 30.4473 -16.668 50c0 33.3301 11.501 61.8311 34.501 85.4971c23.002 23.6631 53.0596 35.499 90.1611 35.499c33.1133 0 58.9453 -9.00098 77.4922 -27.001c18.5625 -17.9961 27.8389 -41.333 27.8389 -69.9951
c0 -37.3281 -7.49512 -69.1064 -22.4932 -95.3223c-15.0059 -26.2256 -34.2793 -39.3369 -57.835 -39.3369c-13.3379 0 -24.1133 4.84277 -32.335 14.502c-8.22168 9.67285 -10.7754 21.168 -7.66602 34.5049c1.7793 7.55371 4.72168 17.8262 8.83301 30.8252
c4.11133 13.001 7.38281 24.3311 9.83203 34.0039c2.44141 9.66309 3.66309 17.9424 3.66309 24.8281c0 10.8896 -2.94727 19.9443 -8.83301 27.1699c-5.88574 7.21973 -14.2754 10.8291 -25.1631 10.8291c-13.5547 0 -25.0547 -6.27734 -34.4951 -18.8359
c-9.44727 -12.5527 -14.1699 -28.0557 -14.1699 -46.4961c0 -15.9971 2.66895 -29.4365 8.00195 -40.3281l-32.6631 -137.992c-5.33496 -22.2178 -6.11328 -50.4434 -2.33105 -84.6553h-61c-26.4414 0 -49.0547 9.38867 -67.832 28.166
c-18.7744 18.7695 -28.1631 41.3848 -28.1631 67.8242v319.989c0 26.4404 9.38867 49.0537 28.1631 67.8311c18.7773 18.7744 41.3896 28.165 67.8301 28.165h319.984v-0.00585938c26.4414 0 49.0537 -9.38867 67.8232 -28.1631z" />
    <glyph glyph-name="uniF12B" unicode="&#xf12b;" 
d="M92.7529 377.966v-74.1787h-33.8799v74.1787c0 20.1582 16.4053 36.5615 36.5713 36.5615h340.532c20.168 0 36.5713 -16.4023 36.5713 -36.5615v-231.119c0 -20.1592 -16.4043 -36.5605 -36.5713 -36.5605h-174.81v33.8789h174.81
c1.48438 0 2.69043 1.19824 2.69043 2.68164v231.119c0 1.48438 -1.20605 2.68262 -2.69043 2.68262h-340.533c-1.4834 0 -2.69043 -1.19824 -2.69043 -2.68262zM498.707 96.4219c7.34277 0 13.293 -5.94922 13.293 -13.293c0 -19.2441 -15.5898 -34.834 -34.8262 -34.834
h-216.007v48.127h237.54zM187.617 269.909c21.876 0 39.6709 -17.7939 39.6709 -39.6709v-221.095c0 -21.876 -17.7949 -39.6719 -39.6709 -39.6719h-147.945c-21.876 0 -39.6719 17.7959 -39.6719 39.6719v221.095c0 21.877 17.7959 39.6709 39.6719 39.6709h147.945z
M33.8799 230.238v-205.338h159.529v205.338c0 3.19336 -2.59863 5.79199 -5.79199 5.79199h-147.945c-3.19531 0 -5.79199 -2.59961 -5.79199 -5.79199zM113.642 -15.3887c5.34668 0 9.84668 3.13379 12.1289 7.58496c0.964844 1.87598 1.63379 3.92285 1.63379 6.17676
c0 7.60254 -6.16016 13.7637 -13.7617 13.7637c-7.60352 0 -13.7637 -6.16113 -13.7637 -13.7637c0 -2.25488 0.670898 -4.30176 1.63379 -6.17676c2.27832 -4.45117 6.78027 -7.58496 12.1289 -7.58496z" />
    <glyph glyph-name="uniF10B" unicode="&#xf10b;" 
d="M460.842 422.421c28.332 0 51.1582 -22.8477 51.1562 -51.2637v-76.7363c0 -28.416 -22.8262 -51.2637 -51.1787 -51.2637h-51.2422v-76.7354c0 -56.5762 -45.7812 -102.421 -102.421 -102.421h-153.578c-56.5547 0 -102.421 45.8447 -102.421 102.421v255.999h409.685z
M460.842 294.421v76.7363h-51.2422v-76.7363h51.2422zM0 -38.4209v51.2422h460.842v-51.2422h-460.842z" />
    <glyph glyph-name="uniF118" unicode="&#xf118;" 
d="M483.832 419.836c18.7744 -18.7754 28.1631 -41.3926 28.1641 -67.835v-319.999c0 -26.4424 -9.38867 -49.0566 -28.167 -67.8359c-18.7705 -18.7783 -41.3857 -28.167 -67.8271 -28.167h-319.999c-26.4424 0 -49.0566 9.38867 -67.835 28.167
c-18.7754 18.7793 -28.1641 41.3945 -28.1641 67.8359v319.999c0 26.4424 9.38867 49.0566 28.1641 67.835c18.7783 18.7744 41.3926 28.1641 67.835 28.1641h320.002c26.4424 0 49.0576 -9.38965 67.8271 -28.1641zM156.002 19.3369v231.333h-77v-231.333h77z
M149.006 293.5c7.99902 7.67188 11.9941 17.1699 11.9951 28.499c-0.220703 11.5547 -4.22168 21.1123 -11.998 28.6689c-7.7793 7.55566 -18.1133 11.335 -31.002 11.335c-12.8867 0 -23.3848 -3.7793 -31.499 -11.335c-8.1084 -7.55664 -12.167 -17.1143 -12.167 -28.6689
c0 -11.333 3.94336 -20.832 11.8359 -28.499c7.8916 -7.66797 18.166 -11.502 30.8311 -11.502h0.335938c13.1123 0 23.6699 3.83398 31.668 11.502zM433.002 19.3369h0.00488281v132.677c0 34.2139 -8.10938 60.1064 -24.332 77.6621
c-16.2217 17.5527 -37.6689 26.332 -64.3359 26.332c-29.8213 0 -52.8115 -12.6826 -69.001 -37.9951v32.6602h-77.001c0.666992 -14.668 0.666992 -91.7822 0 -231.335h77.001v129.332c0 8.44238 0.775391 14.6631 2.33398 18.6582
c3.32812 7.7832 8.32617 14.3955 14.999 19.8369c6.66406 5.44531 14.8906 8.16699 24.667 8.16699c25.7793 0 38.6641 -17.4473 38.6641 -52.332v-123.663h77z" />
    <glyph glyph-name="uniF10C" unicode="&#xf10c;" 
d="M139.637 354.909v-46.5459h-46.5459v93.0908c0 25.6006 20.9453 46.5459 46.5459 46.5459h232.727c25.6006 0 46.5459 -20.9453 46.5459 -46.5459v-93.0908h-46.5459v46.5459h-232.727zM335.127 84.9453l-32.5811 32.582l74.4727 74.4727l-74.4727 74.4727
l32.5811 32.582l107.055 -107.055zM209.454 117.527l-32.5811 -32.582l-107.055 107.055l107.055 107.055l32.5811 -32.582l-74.4727 -74.4727zM372.363 29.0908v46.5459h46.5459v-93.0908c0 -25.6006 -20.9453 -46.5459 -46.5459 -46.5459h-232.727
c-25.6006 0 -46.5459 20.9453 -46.5459 46.5459v93.0908h46.5459v-46.5459h232.727z" />
    <glyph glyph-name="uniF130" unicode="&#xf130;" 
d="M460.8 396.8c28.1602 0 51.2002 -23.04 51.2002 -51.2002v-307.199c0 -28.1602 -23.04 -51.2002 -51.2002 -51.2002h-409.6c-28.1602 0 -51.2002 23.04 -51.2002 51.2002v307.199c0 28.1602 23.04 51.2002 51.2002 51.2002h409.6zM460.8 294.4v51.1992l-204.8 -128
l-204.8 128v-51.1992l204.8 -128z" />
    <glyph glyph-name="uniF10D" unicode="&#xf10d;" 
d="M385.553 136.289c2.5 -8.38574 3.73535 -17.3389 3.74512 -26.8613c0 -29.1406 -9.47852 -54.2363 -28.4307 -75.2852c-18.9512 -21.0488 -43.5703 -34.0498 -73.8623 -39.002v-50.001c0 -2.67188 -0.852539 -4.86328 -2.56445 -6.5752
c-1.71289 -1.71289 -3.9043 -2.56836 -6.5752 -2.56836h-38.5752c-2.47559 0 -4.61719 0.900391 -6.42773 2.71289c-1.80859 1.81152 -2.71387 3.95215 -2.71387 6.43164v50.001c-12.5732 1.71387 -24.7129 4.66504 -36.4297 8.84961
c-11.7168 4.19238 -21.3828 8.42871 -29.002 12.7129c-7.62109 4.29102 -14.6689 8.85645 -21.1445 13.7158c-6.47266 4.86719 -10.9023 8.43262 -13.2881 10.7236c-2.37988 2.28125 -4.0459 4 -4.99902 5.14355c-3.23828 4 -3.43066 7.9043 -0.573242 11.7129
l29.4307 38.5693c1.33203 1.9082 3.52344 3.05273 6.57227 3.43262c2.85352 0.383789 5.14062 -0.475586 6.85547 -2.56445l0.572266 -0.572266c21.5234 -18.8555 44.666 -30.7607 69.4287 -35.7197c7.0459 -1.52344 14.0986 -2.28027 21.1406 -2.28027
c15.4268 0 29.0029 4.09473 40.7158 12.2881c11.7178 8.18457 17.5752 19.8008 17.5752 34.8496c0 5.33594 -1.43262 10.3838 -4.29199 15.1445c-2.8584 4.75977 -6.04785 8.75977 -9.57227 12c-3.52637 3.23926 -9.0957 6.81152 -16.7119 10.7129
c-7.62402 3.9043 -13.9082 6.95215 -18.8633 9.14355c-4.95215 2.19141 -12.5732 5.28809 -22.8574 9.28809c-7.43164 3.04102 -13.2881 5.4248 -17.5742 7.1377c-4.28613 1.71777 -10.1455 4.23926 -17.5742 7.57422c-7.42676 3.32617 -13.3779 6.28809 -17.8564 8.84961
c-4.47754 2.57031 -9.8584 5.9541 -16.1465 10.1475c-6.28418 4.18848 -11.3799 8.2373 -15.2852 12.1396c-3.9043 3.90332 -8.04883 8.57031 -12.4287 13.999c-4.38086 5.42969 -7.7627 10.9521 -10.1426 16.5742c-2.38184 5.61816 -4.38379 11.9521 -6.00098 19.002
c-1.61914 7.04492 -2.43164 14.4736 -2.43164 22.2822c0 26.2891 9.33594 49.333 28.001 69.1445c18.667 19.8096 42.9541 32.5723 72.8604 38.2842v51.4307c0 2.47656 0.904297 4.61816 2.71387 6.42871s3.95215 2.71387 6.42773 2.71387h38.5752
c2.6709 0 4.86328 -0.859375 6.57617 -2.57129c1.70898 -1.71484 2.56543 -3.90625 2.56543 -6.57129v-50.2891c10.8594 -1.14258 21.3867 -3.33105 31.5723 -6.57227c10.1914 -3.23633 18.4805 -6.42871 24.8643 -9.56934
c6.37695 -3.14355 12.4238 -6.71484 18.1377 -10.7139c5.71875 -4.00195 9.43457 -6.76367 11.1445 -8.28809c1.72559 -1.52539 3.14941 -2.85742 4.29395 -4c3.24023 -3.43066 3.71289 -7.05078 1.42773 -10.8584l-23.1475 -41.7158
c-1.52734 -2.85352 -3.71973 -4.37988 -6.57617 -4.57031c-2.66699 -0.569336 -5.23145 0.0957031 -7.71191 2.00098c-0.56543 0.572266 -1.95312 1.71387 -4.14355 3.42969c-2.19238 1.71387 -5.90527 4.23535 -11.1445 7.57031
c-5.24023 3.33105 -10.8096 6.37988 -16.7197 9.14355c-5.90527 2.76465 -13.002 5.23438 -21.2822 7.42676s-16.4326 3.28613 -24.4287 3.28613c-18.0957 0 -32.8604 -4.0957 -44.29 -12.2842c-11.4287 -8.1875 -17.1406 -18.7627 -17.1406 -31.7129
c0 -4.95215 0.810547 -9.52539 2.42676 -13.7158c1.62012 -4.19043 4.42871 -8.14355 8.43066 -11.8574c4.00098 -3.71387 7.76172 -6.85645 11.2852 -9.42578c3.52441 -2.57031 8.8584 -5.52441 15.999 -8.85449c7.14355 -3.33594 12.9033 -5.90625 17.2842 -7.71582
c4.38477 -1.80859 11.0498 -4.42871 20.002 -7.85547c10.0967 -3.80957 17.8154 -6.80957 23.1514 -8.99902c5.3291 -2.19141 12.5684 -5.52344 21.7051 -10.002c9.14551 -4.47949 16.3379 -8.52637 21.5742 -12.1465c5.23828 -3.61621 11.1465 -8.37402 17.7148 -14.2812
c6.57617 -5.91113 11.6201 -11.9531 15.1416 -18.1484c3.52344 -6.18848 6.52344 -13.4756 8.99707 -21.8496z" />
    <glyph glyph-name="uniF105" unicode="&#xf105;" 
d="M491.742 333.937c12.5293 -2.7334 20.2412 -7.17578 20.2578 -13.9932v-307.809h-221c-7.875 -7.0293 -19.3467 -11.4717 -32.1523 -11.4717s-24.2939 4.45801 -32.1201 11.4717h-226.728v307.809c0 8.37988 9.53516 13.5049 24.8467 16.3691v29.874l4.66992 1.82227
c1.57812 0.619141 39.458 15.3447 90.0303 15.3447c54.1357 0 100.802 -16.5 138.731 -49.0586c37.9609 32.5586 84.6279 49.0586 138.73 49.0586c50.5723 0 88.4521 -14.7256 90.0635 -15.3281l4.66992 -1.83887v-32.25zM255.854 36.3955v118.896l-8.64062 -9.50195v178.4
c-35.0156 29.4033 -77.8428 44.4863 -127.683 44.4863c-37.9121 0 -68.7305 -8.90039 -80.0068 -12.6748v-298.876c19.3633 7.76172 42.0947 11.6992 67.7383 11.6992c64.9072 0 129.749 -24.6348 148.592 -32.4287zM477.017 57.0273v298.974
c-11.3096 3.75879 -42.209 12.6748 -80.0234 12.6748c-49.8398 0 -92.6826 -15.083 -127.667 -44.4863v-178.4l-8.63965 9.50195v-118.733c18.582 8.16895 80.3486 33.0312 145.207 33.0312c26.4414 0 50.3281 -4.19727 71.123 -12.5615zM158.957 307.235v0
l-0.0166016 12.3008c37.3105 -6.76855 62.8896 -20.6318 64.5977 -21.6084l-5.75977 -10.3809c-0.407227 0.210938 -24.082 13.0166 -58.8213 19.6885zM158.957 273.553v0l-0.0166016 12.2852c37.3105 -6.75293 62.8896 -20.6162 64.5977 -21.5918l-5.75977 -10.3984
c-0.407227 0.228516 -24.082 13.0498 -58.8213 19.7051zM158.957 241.904v0l-0.0166016 12.2852c37.3105 -6.75195 62.8896 -20.5996 64.5977 -21.5918l-5.75977 -10.3975c-0.407227 0.227539 -24.082 13.0332 -58.8213 19.7041zM158.957 207.214v0l-0.0166016 12.2852
c37.3105 -6.75293 62.8896 -20.6328 64.5977 -21.6084l-5.75977 -10.3818c-0.407227 0.211914 -24.082 13.0342 -58.8213 19.7051zM68.6006 184.531c81.293 21.5273 152.009 -17.1338 154.938 -18.7773l-5.75977 -10.3975
c-0.683594 0.374023 -69.5605 37.9453 -146.118 17.6709zM68.6006 151.517c81.293 21.5273 152.009 -17.1016 154.938 -18.7773l-5.75977 -10.3818c-0.683594 0.390625 -69.5605 37.9619 -146.118 17.6553zM68.6006 118.42
c81.293 21.5439 152.009 -17.1016 154.938 -18.7607l-5.75977 -10.3818c-0.683594 0.358398 -69.5605 37.9619 -146.118 17.6387zM302.276 286.651l-5.80859 10.3652c2.94434 1.65918 73.6768 40.3203 154.97 18.7773l-3.05957 -11.5039
c-76.5244 20.3066 -145.386 -17.2646 -146.102 -17.6387zM296.516 263.351c2.94531 1.66016 73.6621 40.3213 154.922 18.7773l-3.05957 -11.5205c-76.5244 20.3232 -145.386 -17.2637 -146.102 -17.6377zM296.516 231.719c2.94531 1.64355 73.6621 40.2881 154.922 18.7607
l-3.05957 -11.4873c-76.5244 20.2744 -145.386 -17.2803 -146.102 -17.6709zM296.516 197.012c2.94531 1.65918 73.6621 40.3369 154.922 18.7773l-3.05957 -11.5039c-76.5244 20.3066 -145.386 -17.2803 -146.102 -17.6543zM296.516 164.875
c2.94531 1.66016 73.6621 40.2891 154.922 18.7617l-3.05957 -11.5039c-76.5244 20.29 -145.386 -17.2803 -146.102 -17.6709zM296.516 131.86c2.94531 1.66016 73.6621 40.3047 154.922 18.7607l-3.05957 -11.4873c-76.5244 20.291 -145.386 -17.2803 -146.102 -17.6543z
M296.516 98.7637c2.94531 1.64355 73.6621 40.3213 154.922 18.7773l-3.05957 -11.5039c-76.5244 20.3232 -145.386 -17.2959 -146.102 -17.6377zM146.086 209.312c0 0 -20.2578 2.89648 -40.8584 1.39941c-20.6318 -1.49707 -36.627 -6.23145 -36.627 -6.23145v112.208
s19.1357 5.97168 38.7432 6.50879c19.6396 0.520508 38.7422 -1.65918 38.7422 -1.65918v-112.226z" />
    <glyph glyph-name="uniF104" unicode="&#xf104;" 
d="M469.333 321.352c23.5811 0 42.667 -19.1289 42.667 -42.667v-273.778c0 -23.5801 -19.1006 -42.666 -42.667 -42.666h-426.666c-23.5527 0 -42.667 19.0859 -42.667 42.666v273.778c0 23.5518 19.1143 42.667 42.667 42.667h75.5479v71.9502
c0 15.7012 12.7432 28.4443 28.4443 28.4443h218.695c15.7012 0 28.4443 -12.7432 28.4443 -28.4443v-71.9502h75.5342zM175.104 364.828v-43.5195h161.807v43.5195h-161.807z" />
    <glyph glyph-name="uniF108" unicode="&#xf108;" 
d="M508.603 323.877c3.60449 -5.25098 4.39551 -11.9414 2.10547 -17.8867l-77.3398 -201.106c-2.87109 -7.46777 -10.0459 -12.3945 -18.0469 -12.3945h-204.981c-8.00098 0 -15.1738 4.92676 -18.0469 12.3945l-74.4951 193.708l-35.1582 39.0664l-56.8623 0.00292969
c-14.2373 0.00195312 -25.7803 11.5449 -25.7773 25.7822c0 14.2373 11.543 25.7773 25.7803 25.7773h0.00292969l68.3428 -0.00488281c7.30859 0 14.2725 -3.10156 19.1611 -8.53418l43.5742 -48.415h335.802c6.36914 0 12.3311 -3.14062 15.9395 -8.38965z
M201.683 33.4492c0 25.7799 12.89 38.6699 38.6699 38.6699c25.7806 0 38.6709 -12.89 38.6709 -38.6699c0 -25.7799 -12.8903 -38.6699 -38.6709 -38.6699c-25.78 9.53674e-07 -38.6699 12.89 -38.6699 38.6699zM343.793 33.4492
c0 25.7799 12.8903 38.6699 38.6709 38.6699c25.7799 0 38.6699 -12.89 38.6699 -38.6699c0 -25.7799 -12.89 -38.6699 -38.6699 -38.6699c-25.7806 9.53674e-07 -38.6709 12.89 -38.6709 38.6699z" />
    <glyph glyph-name="uniF109" unicode="&#xf109;" 
d="M59.7021 97.0801v279.337c0 20.3506 -16.5508 36.9062 -36.8945 36.9062c-9.57617 0 -17.3379 7.7627 -17.3379 17.3379c0 9.57422 7.76172 17.3389 17.3359 17.3389c39.4648 0 71.5693 -32.1113 71.5693 -71.582v-17.916h394.819
c5.4375 0 10.5654 -2.55176 13.8408 -6.89551c3.27734 -4.34473 4.32422 -9.97363 2.8291 -15.2031l-44.7607 -156.678c-10.3643 -36.2949 -48.0508 -64.7275 -85.7959 -64.7275h-244.041c-13.4844 0 -26.1104 3.75488 -36.8916 10.2656v-28.1836
c0 -20.3477 16.5518 -36.9033 36.8916 -36.9033h303.692c9.57617 0 17.3369 -7.7627 17.3369 -17.3379c0 -9.57617 -7.76074 -17.3389 -17.3369 -17.3389h-38.8662c15.6104 -7.69922 26.3779 -23.7773 26.3779 -42.3301c0 -26.0107 -21.1572 -47.1699 -47.1641 -47.1699
c-26.0059 0 -47.165 21.1592 -47.165 47.1699c0 18.5527 10.7676 34.6309 26.3779 42.3301h-182.115c15.6104 -7.69922 26.3809 -23.7773 26.3809 -42.3301c0 -26.0107 -21.1611 -47.1699 -47.168 -47.1699s-47.1641 21.1592 -47.1641 47.1699
c0 18.5605 10.7764 34.6445 26.4004 42.3408c-39.2725 0.225586 -71.1514 32.2402 -71.1514 71.5693z" />
    <glyph glyph-name="uniF119" unicode="&#xf119;" 
d="M256 448c88.3652 0 160 -71.6416 160 -160c0 -152.768 -160 -352 -160 -352s-160 199.232 -160 352c0 88.3584 71.6221 160 160 160zM256 199.68c47.7119 0 86.4004 38.6816 86.4004 86.4004s-38.6885 86.4004 -86.4004 86.4004
c-47.7246 0 -86.4004 -38.6816 -86.4004 -86.4004s38.6758 -86.4004 86.4004 -86.4004z" />
    <glyph glyph-name="uniF124" unicode="&#xf124;" 
d="M505.51 369.006c5.02734 -5.79883 7.31445 -13.5381 6.22461 -21.1982l-26.5977 -186.182c-1.8623 -13.0859 -13.0859 -22.8203 -26.3311 -22.8203h-301.057l4.41504 -26.5977h270.044c14.708 0 26.5977 -11.8896 26.5977 -26.5977s-11.8896 -26.5977 -26.5977 -26.5977
h-292.599c-3.43066 0 -6.67578 0.745117 -9.76074 1.99512c-1.09082 0.425781 -1.96875 1.16992 -2.97949 1.72852c-1.80859 1.01074 -3.58984 2.02148 -5.13281 3.45801c-0.958008 0.904297 -1.70215 1.94141 -2.52637 2.97852
c-1.19727 1.5166 -2.34082 3.00586 -3.19238 4.76172c-0.665039 1.27637 -1.01074 2.60645 -1.43555 4.01562c-0.373047 1.11719 -0.984375 2.10156 -1.19727 3.29785l-49.4717 296.934h-37.3154c-14.709 0 -26.5977 11.8896 -26.5977 26.5977
s11.8887 26.5977 26.5977 26.5977h59.8438c13.0059 0 24.0977 -9.41602 26.2256 -22.2354l5.18652 -30.96h367.549c7.71387 0 15.0273 -3.35156 20.1074 -9.17578zM454.735 324.987h-102.319v-53.1953h94.7393zM325.818 324.987h-79.792v-53.1953h79.792v53.1953z
M325.818 245.194h-79.792v-53.1943h79.792v53.1943zM219.429 324.987h-92.7188l8.99023 -53.9932c1.25 0.399414 2.52637 0.797852 3.93652 0.797852h79.792v53.1953zM140.009 245.194l8.85645 -53.1943h70.5635v53.1943h-79.4199zM352.416 192h83.3291l7.58008 53.1943
h-90.9092v-53.1943zM139.637 -7.48047c0 26.5977 13.2985 39.8965 39.8955 39.8965c26.5977 0 39.8965 -13.2988 39.8965 -39.8965s-13.2988 -39.8965 -39.8965 -39.8965c-26.597 0 -39.8955 13.2988 -39.8955 39.8965zM379.013 -7.48047
c0 26.5977 13.2988 39.8965 39.8965 39.8965s39.8965 -13.2988 39.8965 -39.8965s-13.2988 -39.8965 -39.8965 -39.8965s-39.8965 13.2988 -39.8965 39.8965z" />
    <glyph glyph-name="uniF123" unicode="&#xf123;" 
d="M161.1 149.3c-13.5 0 -25 -11.5 -25 -25.2002c0 -13.5 11.4004 -25 25 -25h281.5v-20.8994h-281.5c-25 0 -45.8994 20.8994 -45.8994 45.8994c0 15.3008 7.5 28.7002 18.8994 36.9004l-55.2998 216.4c-4.2002 15.6992 -17.7998 26.0996 -33.3994 26.0996h-34.4004
v20.9004h34.4004c25.0996 0 46.8994 -17.7002 53.1992 -42.7002l12.5 -50h60.2002l-15.3994 46.8994l112.6 36.5l27.7998 -83.3994h5.2998l-15.3994 46.8994l112.6 36.5l27 -83.3994h75.2002l-51.0996 -182.4h-288.801zM385.3 389.1l-74 -24l11.5 -32.2998h81.2998z
M255 389.1l-74 -24l11.5 -32.2998h81.2998zM473.9 311.9h-357.601l36.5 -141.801h281.5zM350.9 47.0996c24 0 43.7998 -19.7998 43.7998 -43.7998s-18.7998 -43.7998 -43.7998 -43.7998c-24 0 -43.8008 19.7998 -43.8008 43.7998s19.8008 43.7998 43.8008 43.7998z
M350.9 -20.7002c12.5 0 24 10.4004 24 24c0 13.6006 -10.4004 24 -24 24c-12.5 0 -24 -10.3994 -24 -24c0 -12.5 10.3994 -24 24 -24zM190.3 47.0996c24 0 43.7998 -19.7998 43.7998 -43.7998s-19.7998 -43.7998 -43.7998 -43.7998s-43.7998 19.7998 -43.7998 43.7998
s19.7998 43.7998 43.7998 43.7998zM190.3 -20.7002c12.5 0 24 10.4004 24 24c0 13.6006 -11.5 24 -24 24s-24 -10.3994 -24 -24c0 -12.5 10.4004 -24 24 -24z" />
    <glyph glyph-name="uniF128" unicode="&#xf128;" 
d="M268.103 428.078l65.127 -154.144l166.733 -14.3242c11.5645 -0.999023 16.2686 -15.4277 7.49023 -23.0225l-126.469 -109.57l37.8984 -163.001c2.62793 -11.3271 -9.64551 -20.2373 -19.5801 -14.2188l-143.289 86.415l-143.29 -86.415
c-9.96094 -5.99219 -22.208 2.91699 -19.5801 14.2188l37.8984 163.001l-126.495 109.596c-8.77832 7.5957 -4.09961 22.0244 7.49023 23.0234l166.733 14.3242l65.127 154.117c4.52051 10.7227 19.6846 10.7227 24.2051 0z" />
    <glyph glyph-name="uniF112" unicode="&#xf112;" 
d="M510.391 220.426c2.16797 -19.3896 2.14062 -38.9688 -0.114258 -58.2188c-0.889648 -7.49316 -7.64355 -13.1465 -14.9834 -12.5508l-3.16602 0.0820312c-22.6299 0 -43.6689 -13.9404 -52.3711 -34.7031c-9.25586 -22.0566 -3.47461 -47.7285 14.3438 -63.8643
c5.58691 -5.05566 6.25391 -13.5898 1.5293 -19.4561c-12.1748 -15.1631 -26.1006 -28.9365 -41.415 -40.9463c-5.89551 -4.55469 -14.2588 -3.88965 -19.3203 1.61621c-15.2305 16.7314 -42.333 23.0293 -63.4004 14.4248
c-21.7939 -8.92383 -35.8848 -30.8672 -35.0264 -54.5918c0.25 -7.44922 -5.25 -13.8428 -12.6738 -14.6611c-9.36719 -1.04199 -18.7354 -1.55664 -28.1025 -1.55664c-9.86816 0 -19.709 0.569336 -29.4912 1.71094c-7.47754 0.860352 -13.0078 7.41992 -12.5635 14.9541
c1.36035 23.9883 -12.5391 46.3203 -34.6357 55.5635c-21.0957 8.85449 -48.5029 2.58496 -63.8193 -14.3564c-5.08398 -5.60254 -13.6191 -6.26953 -19.4844 -1.54297c-14.9541 12.0361 -28.6035 25.8223 -40.499 40.9727
c-4.61523 5.85059 -3.91992 14.2598 1.55664 19.291c17.5107 16.0508 23.2637 41.4834 14.3145 63.3027c-8.97852 21.8486 -30.3809 35.6504 -52.6738 35.0811c-7.33594 0 -15.9824 5.36035 -16.7871 12.5879c-2.16797 19.3896 -2.14062 38.9863 0.111328 58.2197
c0.887695 7.37988 6.66895 12.8281 14.7861 12.5674c25.0146 0 46.8652 13.5615 55.7021 34.6045c9.25684 22.0713 3.50391 47.7393 -14.3135 63.875c-5.55957 5.05762 -6.25488 13.5781 -1.52832 19.457c12.1182 15.1221 26.0723 28.9072 41.415 40.9443
c5.86328 4.57031 14.2861 3.89258 19.3184 -1.625c15.2295 -16.748 42.4463 -22.9756 63.3721 -14.4277c21.8223 8.9375 35.8887 30.8818 35.0547 54.6201c-0.25 7.43555 5.25391 13.8281 12.6758 14.6475c19.1797 2.12793 38.4697 2.05957 57.5918 -0.152344
c7.50781 -0.874023 13.0117 -7.42188 12.5645 -14.9521c-1.36035 -23.9746 12.5381 -46.3096 34.5791 -55.5811c21.1797 -8.83691 48.5889 -2.55664 63.8486 14.3428c5.05957 5.60254 13.6211 6.25488 19.4561 1.57227c14.9004 -11.9375 28.5479 -25.71 40.5557 -40.958
c4.61523 -5.85059 3.94727 -14.2725 -1.55664 -19.3037c-17.4844 -16.0381 -23.2354 -41.4854 -14.3164 -63.3047c8.73047 -21.3037 29.5488 -35.0791 53.0088 -35.0791c7.25684 0 15.6484 -5.4082 16.458 -12.6055zM256.405 106.068
c47.0859 0 85.3877 38.3018 85.3877 85.3896c0 47.0859 -38.3018 85.3906 -85.3877 85.3906c-47.0889 0 -85.3906 -38.3047 -85.3906 -85.3906c0 -47.0879 38.3018 -85.3896 85.3906 -85.3896z" />
    <glyph glyph-name="uniF11C" unicode="&#xf11c;" 
d="M318.375 361.723l104.152 -104.151l-263.639 -263.639l-104.093 104.151zM501.559 386.842c13.9229 -13.9229 13.9229 -36.376 0 -50.2988l-51.8984 -51.8984l-104.152 104.152l44.4932 44.4922c18.0107 17.9512 47.1592 17.9512 65.1094 0zM0.290039 -48.3086
l26.3047 118.191l104.094 -104.151l-116.061 -28.1396c-8.53125 -2.0752 -16.2334 5.56836 -14.3379 14.0996z" />
    <glyph glyph-name="uniF111" unicode="&#xf111;" 
d="M504.461 443.9c6.11816 -4.75781 8.83691 -12.6475 6.94141 -20.125l-118.24 -472.985c-1.68945 -6.81836 -6.92188 -12.1738 -13.6992 -14.0693c-1.73047 -0.494141 -3.48145 -0.720703 -5.21191 -0.720703c-5.1084 0 -10.0938 1.99805 -13.8018 5.70605
l-112.226 112.226c-1.46289 -2.05957 -52.1992 -73.9316 -61.0156 -85.9609c-13.2246 -18.0039 -26.7793 -14.8115 -29.2305 4.7373c-2.14258 17.1592 -13.3281 105.531 -18.0654 143.084l-126.008 37.7998c-7.53906 2.2666 -12.998 8.8584 -13.8018 16.6855
c-0.802734 7.84863 3.19336 15.4092 10.1152 19.1582l473.005 256.216c6.79785 3.6875 15.1201 3.00781 21.2383 -1.75098zM363.684 -6.3418l99.1455 396.561l-392.75 -212.752l91.6475 -27.5l251.932 179.957l-161.645 -224.596z" />
    <glyph glyph-name="uniF120" unicode="&#xf120;" 
d="M507.079 384.607c-7.79395 -23.3779 -20.9434 -44.3262 -39.4473 -62.8418l-58.8145 -58.8125l58.4473 -254.251c1.21191 -4.62793 -0.250977 -8.64258 -4.38379 -12.0498l-46.7676 -35.0674c-1.70312 -1.45898 -4.02051 -2.19043 -6.93652 -2.19043
c-0.977539 0 -1.83105 0.119141 -2.55762 0.363281c-3.65527 0.731445 -6.21191 2.67969 -7.6709 5.8457l-101.925 185.587l-94.6152 -94.623l19.3623 -70.8691c1.21582 -4.13867 0.241211 -7.91309 -2.9248 -11.3281l-35.0654 -35.0635
c-2.19336 -2.18945 -4.99219 -3.2832 -8.40332 -3.2832h-0.730469c-3.65234 0.495117 -6.57617 2.07031 -8.76953 4.75391l-69.04 92.0527l-92.0557 69.0381c-2.68164 1.70801 -4.26465 4.50977 -4.74805 8.40625c-0.243164 3.16309 0.850586 6.20898 3.28613 9.125
l35.0674 35.4326c2.19238 2.19434 4.99121 3.28809 8.40234 3.28809c1.46191 0 2.43359 -0.123047 2.91992 -0.368164l70.8682 -19.3564l94.6172 94.6162l-185.576 101.92c-3.40918 1.9502 -5.48047 4.86914 -6.21094 8.76953
c-0.489258 3.89648 0.610352 7.18359 3.28613 9.86523l46.7617 46.7598c3.40723 3.16504 7.06055 4.13867 10.957 2.91992l242.923 -58.082l58.4463 58.4512c18.5117 18.5078 39.457 31.6572 62.8369 39.4512c23.3838 7.7793 41.4062 6.32324 54.0693 -4.39355
c10.7236 -12.6689 12.1816 -30.6875 4.3916 -54.0654z" />
    <glyph glyph-name="uniF11A" unicode="&#xf11a;" 
d="M341.333 337.088c-21.334 0 -38.3994 17.2383 -38.3994 38.3584c0 21.1191 17.0664 38.4209 38.3994 38.4209c21.1201 0 38.3994 -17.2793 38.3994 -38.3994c0 -21.1211 -17.2783 -38.3799 -38.3994 -38.3799zM405.333 183.467
c58.8799 0 106.667 -47.7861 106.667 -106.667c0 -58.8799 -47.7861 -106.667 -106.667 -106.667c-58.8799 0 -106.667 47.7871 -106.667 106.667c0 58.8809 47.7871 106.667 106.667 106.667zM405.333 2.13379c41.1738 0 74.667 33.4941 74.667 74.667
c0 41.1738 -33.4932 74.667 -74.667 74.667c-41.1729 0 -74.667 -33.4932 -74.667 -74.667c0 -41.1729 33.4941 -74.667 74.667 -74.667zM315.733 226.134l-36.9062 52.9062l-49.4932 -49.707l48 -35.626v-138.239h-38.4004v106.667l-71.4668 43.2852
c-11.0928 6.63477 -18.1328 17.9619 -18.1328 31.3809c0 10.0264 4.05273 19.1992 10.8789 25.6211l78.9336 78.9111c6.61426 6.63477 15.5742 10.667 25.6006 10.667c13.2051 0 24.7471 -7.04004 31.1465 -17.707l41.1738 -69.7598h68.2656v-38.3994h-89.5996z
M106.667 183.467c58.8789 0 106.667 -47.7861 106.667 -106.667c0 -58.8799 -47.7871 -106.667 -106.667 -106.667c-58.8809 0 -106.667 47.7871 -106.667 106.667c0 58.8809 47.7861 106.667 106.667 106.667zM106.667 2.13379c41.1729 0 74.667 33.4941 74.667 74.667
c0 41.1738 -33.4941 74.667 -74.667 74.667c-41.1738 0 -74.667 -33.4932 -74.667 -74.667c0 -41.1729 33.4932 -74.667 74.667 -74.667z" />
    <glyph glyph-name="uniF117" unicode="&#xf117;" 
d="M511.153 288.069c0.581055 -3.63281 3.00293 -22.7559 -4.3623 -53.9307c-10.6143 -44.9893 -35.1328 -85.8926 -70.8867 -118.298l-181.436 -161.86l-178.373 161.87c-35.7539 32.3955 -60.2725 73.3086 -70.8867 118.288
c-7.36523 31.1846 -4.94336 50.3076 -4.35254 53.9404c7.46387 82.2598 65.6973 141.94 138.554 141.94c47.7666 0 90.3926 -25.5908 115.177 -68.001c25.0107 41.8682 69.459 67.9912 118.003 67.9912c72.8662 0 131.09 -59.6807 138.563 -141.94z" />
    <glyph glyph-name="uniF107" unicode="&#xf107;" 
d="M450.028 128.543c-3.02051 -8.22266 -6.37695 -14.4316 -23.4258 -14.4316h-226.189l2.06445 -10.9912c14.9014 -0.586914 29.6348 -5.78906 40.4248 -22.5703h148.662c8.5918 12.5859 27.084 20.9766 42.6729 20.9766c37.4883 0 56.3672 -27.5371 56.3672 -58.5986
c0 -31.2295 -25.4229 -58.3135 -56.6855 -58.3135c-34.2998 0 -52.541 28.8125 -56.1992 45.5938h-120.989c-3.65918 -16.7812 -26.1787 -44.9229 -56.2158 -44.9229c-31.8174 0 -56.7197 28.8301 -56.7197 60.1094c0 14.2129 5.37012 29.4502 15.2373 39.9043
l-62.123 263.744h-81.1689c-10.3369 0 -15.7402 2.34961 -15.7402 11.3613v25.0029c0 9.31348 5.41992 13.9785 15.3877 13.9785h96.1377c14.6836 0 21.9658 -9.74902 24.4326 -19.9688l9.12891 -43.3115l342.077 -0.0673828c2.50098 0 15.4053 -0.0839844 21.6816 -8.92676
c2.44922 -3.45703 4.74805 -8.69336 1.71094 -17.4023zM434.338 64.9268c-11.7627 0 -21.3115 -9.54785 -21.3281 -21.3115c0 -11.7803 9.56543 -21.3115 21.3281 -21.3115c11.7637 0 21.3125 9.54883 21.3125 21.3115c0 11.7637 -9.54883 21.3115 -21.3125 21.3115z
M221.591 43.6152c0 11.8975 -9.66602 21.5801 -21.5293 21.5801c-11.8984 0 -21.5811 -9.68262 -21.5811 -21.5801s9.68262 -21.5459 21.5811 -21.5801c11.8633 0 21.5293 9.68262 21.5293 21.5801z" />
    <glyph glyph-name="uniF115" unicode="&#xf115;" 
d="M499.77 -39.5391c6.89941 0 12.2305 -5.75 12.2305 -12.2305c0 -6.89941 -5.74902 -12.2305 -12.2305 -12.2305h-487.539c-6.89941 0 -12.2305 5.74902 -12.2305 12.2305v487.539c0 6.89941 5.33105 12.2305 12.2305 12.2305s12.2305 -5.74902 12.2305 -12.2305v-475.309
h475.309zM59.793 -16.0195v312.865h102.023v-312.865h-102.023zM204.779 -16.0195v434.75h102.023v-434.75h-102.023zM349.87 -15.915v295.723h102.023v-295.723h-102.023z" />
    <glyph glyph-name="uniF10E" unicode="&#xf10e;" 
d="M508.414 345.273c4.78027 -4.77832 4.78027 -12.5264 0.00488281 -17.3096l-30.1846 -30.1846l14.124 -14.125c4.78027 -4.77734 4.78027 -12.5264 0 -17.3037l-38.8369 -38.8369c-2.2959 -2.29883 -5.40918 -3.58594 -8.6543 -3.58594s-6.3584 1.29004 -8.6543 3.58594
l-53.8311 53.8301l-215.724 -215.724l53.8311 -53.8311c4.78027 -4.77734 4.78027 -12.5264 0 -17.3037l-38.8369 -38.8369c-2.3916 -2.3916 -5.52246 -3.58594 -8.65527 -3.58594s-6.2627 1.19434 -8.6543 3.58594l-14.1221 14.1221l-30.1846 -30.1846
c-2.3916 -2.3916 -5.52148 -3.58594 -8.6543 -3.58594s-6.26367 1.19434 -8.65527 3.58594l-31.0537 31.0537l-6.41211 -6.41211c-2.3916 -2.3916 -5.52148 -3.58594 -8.6543 -3.58594s-6.26562 1.19434 -8.6543 3.58594l-19.7295 19.7285
c-4.78027 4.77832 -4.78027 12.5264 0 17.3047l6.41406 6.41504l-31.0537 31.0537c-2.29297 2.29297 -3.58301 5.40625 -3.58301 8.65234c0 3.24512 1.29004 6.35547 3.58301 8.65137l30.1875 30.1875l-14.124 14.125c-2.29395 2.29297 -3.58301 5.40625 -3.58301 8.65137
c0 3.24609 1.28906 6.35645 3.58301 8.65234l38.8389 38.835c4.7832 4.7793 12.5293 4.77734 17.3066 0l53.8281 -53.8281l215.724 215.724l-53.8301 53.833c-2.29395 2.29297 -3.58301 5.40625 -3.58301 8.65234c0 3.24512 1.28711 6.35547 3.58301 8.65137
l38.8389 38.8369c4.78027 4.78027 12.5264 4.78027 17.3066 0l14.1221 -14.1221l30.1855 30.1826c4.78027 4.78027 12.5264 4.77832 17.3066 0l31.0537 -31.0508l6.41211 6.41211c4.78027 4.78027 12.5264 4.78027 17.3066 0l19.7295 -19.7295
c4.78027 -4.77734 4.78027 -12.5264 0 -17.3037l-6.41504 -6.41504z" />
    <glyph glyph-name="uniF126" unicode="&#xf126;" 
d="M415.999 448c53.0244 0 96.001 -42.9756 96 -95.999v-320c0 -53.0234 -42.9756 -96 -96 -96h-320c-53.0234 0 -95.999 42.9756 -95.999 96v320c0 53.0234 42.9756 95.999 95.999 95.999h320zM184.575 19.7441c64.6094 0 100.288 36.6396 100.291 73.5039
c0 29.5361 -8.67188 47.2324 -35.6484 66.3037c-9.21582 6.56055 -26.8809 22.4326 -26.8809 31.7764c0 10.9443 3.10352 16.3203 19.584 29.2168c16.8643 13.1836 28.8008 31.7432 28.8008 53.2793c0 25.665 -11.4248 50.6885 -32.8965 58.9443h32.3516l22.9121 16.5117
h-102.079c-45.7607 0 -88.8008 -34.6562 -88.8008 -74.8154c0 -41.0566 31.168 -74.1768 77.7275 -74.1768l9.44043 0.320312c-3.00879 -5.79199 -5.18457 -12.2871 -5.18457 -19.0713c0 -11.4248 6.14355 -20.6719 13.8877 -28.1924l-17.6963 -0.160156
c-56.6719 0.03125 -100.288 -36.0967 -100.288 -73.5039c0 -36.8643 47.8086 -59.9365 104.479 -59.9365zM448 223.393v32.6074h-64v64h-31.9678v-64h-64.0312v-32.6074h64.0312v-63.9043h31.9678v63.9043h64zM234.048 271.84
c4.57617 -34.5605 -13.0889 -61.9199 -39.3281 -61.1182c-26.3037 0.766602 -51.2949 29.4072 -55.8398 63.9355c-4.54395 34.5596 13.0879 60.96 39.3604 60.1914c26.2715 -0.799805 51.2637 -28.5117 55.8076 -63.0088zM216.607 139.552
c21.248 -14.752 36.5127 -23.1035 40.7998 -40.001c0.768555 -3.42285 1.24902 -6.94336 1.24902 -10.5273c0 -29.7598 -19.1689 -53.0557 -74.2402 -53.0557c-39.168 0 -67.4561 24.7676 -67.4561 54.5918c0 29.2158 35.0723 53.5039 74.2402 53.0879
c9.12012 -0.0957031 17.6631 -1.59961 25.4072 -4.0957z" />
    <glyph glyph-name="uniF127" unicode="&#xf127;" 
d="M52.9932 67.3916c-29.1777 0 -52.9033 24.1475 -52.9033 53.8408v272.919c0 29.6924 23.7256 53.8486 52.9033 53.8486h406.014c29.1768 0 52.9033 -24.1562 52.9033 -53.8486v-272.919c0 -29.6934 -23.7266 -53.8408 -52.9033 -53.8408h-57.8232v-131.392
l-160.131 131.392h-188.06z" />
    <glyph glyph-name="uniF11E" unicode="&#xf11e;" 
d="M405.018 395.533c33.166 -31.8447 52.1895 -75.5156 52.1895 -119.814c0 -56.665 -15.7959 -108.263 -44.4746 -145.282c-29.5703 -38.168 -71.582 -59.1895 -118.297 -59.1895c-24.7803 0 -50.248 10.2998 -66.0645 25.5342
c-5.17969 -20.4434 -13.6338 -53.6992 -16.0488 -62.4951c-2.98145 -10.8145 -32.2676 -106.517 -65.0322 -97.7129c-29.1611 7.83496 -11.543 106.099 -8.61816 118.54c5.05762 21.3125 31.7236 134.332 36.2109 153.343
c-2.72461 6.50391 -8.74414 23.4434 -8.74414 46.0918c0 46.1797 27.9023 82.3545 63.5186 82.3545c28.0254 0 46.8574 -20.582 46.8574 -51.2148c0 -17.9092 -6.93555 -40.3555 -14.2725 -64.1221c-4.02246 -13.0127 -8.17969 -26.4727 -11.2275 -39.376
c-2.69824 -11.4209 -0.487305 -22.3789 6.22266 -30.8623c7.10156 -8.97363 18.3574 -14.1201 30.8877 -14.1201c28.9766 0 47.8516 22.293 58.585 40.9941c15.4473 26.915 23.9512 63.4795 23.9512 102.962c0 62.5664 -42.4805 101.434 -110.866 101.434
c-86.1875 0 -132.689 -66.3721 -132.689 -128.823c0 -21.0244 5.37695 -37.1797 16.9229 -50.8418c6.33789 -7.46875 8.68652 -12.6279 5.78027 -23.3535c-1.35742 -5.43066 -4.48047 -17.9414 -5.82812 -23.0127c-2.31152 -8.83984 -8.98438 -14.3506 -17.4062 -14.3506
c-2.64355 0 -5.34082 0.553711 -8.02051 1.65137c-39.9219 16.2744 -63.7607 60.0186 -63.7607 117.012c0 45.3916 19.5625 91.2188 53.6758 125.731c27.6797 28.0049 77.7715 61.3906 159.216 61.3906c53.3174 0 102.09 -18.6338 137.333 -52.4668z" />
    <glyph glyph-name="uniF116" unicode="&#xf116;" 
d="M351.652 -33.4385l-214.325 213.929c-6.35059 6.34961 -6.35059 16.6699 0 23.0195l214.325 213.929c6.35059 6.35059 16.6699 6.35059 23.0205 0s6.35059 -16.6699 0 -23.0195l-202.419 -202.419l202.419 -202.419c6.35059 -6.34961 6.35059 -16.6689 0 -23.0195
c-3.1748 -3.17578 -7.14453 -4.7627 -11.5098 -4.7627c-4.36621 0 -8.33496 1.58691 -11.5107 4.7627z" />
    <glyph glyph-name="uniF106" unicode="&#xf106;" 
d="M123.586 328.772c-5.2959 0 -8.82715 3.53027 -8.82812 8.82715c0 5.29785 3.53125 8.82812 8.82812 8.82812h79.4482c5.29688 0 8.82812 -3.53027 8.82812 -8.82812c0 -5.29688 -3.53125 -8.82715 -8.82812 -8.82715h-79.4482zM88.2764 284.634
c-5.29785 0 -8.82812 3.53125 -8.82812 8.82812s3.53027 8.82812 8.82812 8.82812h114.759c5.29688 0 8.82812 -3.53125 8.82812 -8.82812s-3.53125 -8.82812 -8.82812 -8.82812h-114.759zM88.2764 240.496c-5.29785 0 -8.82812 3.53125 -8.82812 8.82812
s3.53027 8.82812 8.82812 8.82812h79.4473c5.29785 0 8.82812 -3.53125 8.82812 -8.82812s-3.53027 -8.82812 -8.82812 -8.82812h-79.4473zM203.034 214.013c5.29688 0 8.82812 -3.53027 8.82812 -8.82812c0 -5.29688 -3.53125 -8.82715 -8.82812 -8.82715h-79.4482
c-5.29688 0 -8.82812 3.53027 -8.82812 8.82715c0 5.29785 3.53125 8.82812 8.82812 8.82812h79.4482zM88.2764 152.22c-5.29785 0 -8.82812 3.53125 -8.82812 8.82812s3.53027 8.82812 8.82812 8.82812h114.759c5.29688 0 8.82812 -3.53125 8.82812 -8.82812
s-3.53125 -8.82812 -8.82812 -8.82812h-114.759zM308.966 284.634c-5.29688 0 -8.82812 3.53125 -8.82812 8.82812s3.53125 8.82812 8.82812 8.82812h79.4482c5.29688 0 8.82812 -3.53125 8.82812 -8.82812s-3.53125 -8.82812 -8.82812 -8.82812h-79.4482zM308.966 328.772
c-5.29688 0 -8.82812 3.53027 -8.82812 8.82715c0 5.29785 3.53125 8.82812 8.82812 8.82812h123.586c5.29688 0 8.82812 -3.53027 8.82812 -8.82812c0 -5.29688 -3.53125 -8.82715 -8.82812 -8.82715h-123.586zM432.552 169.875
c5.2959 0 8.82812 -3.53125 8.82812 -8.82812s-3.53125 -8.82812 -8.82812 -8.82812h-88.2754c-5.29785 0 -8.82812 3.53125 -8.82812 8.82812s3.53027 8.82812 8.82812 8.82812h88.2754zM308.966 196.358c-5.29688 0 -8.82812 3.53027 -8.82812 8.82715
c0 5.29785 3.53125 8.82812 8.82812 8.82812h79.4482c5.29688 0 8.82812 -3.53027 8.82812 -8.82812c0 -5.29688 -3.53125 -8.82715 -8.82812 -8.82715h-79.4482zM308.966 240.496c-5.29688 0 -8.82812 3.53125 -8.82812 8.82812s3.53125 8.82812 8.82812 8.82812h123.586
c5.29688 0 8.82812 -3.53125 8.82812 -8.82812s-3.53125 -8.82812 -8.82812 -8.82812h-123.586zM485.517 408.22h26.4834v-344.275v-17.6553v-26.4834h-105.931v-61.793l-44.1387 33.5449l-44.1377 -33.5449v61.793h-317.793v26.4834v17.6553v344.275h26.4824h15.8896
c67.0986 23.5283 146.233 23.8135 213.642 0.0400391c68.1699 23.7734 143.899 23.4883 213.613 -0.0400391h15.8896zM317.793 63.9443v9.70996c-11.4756 -2.64844 -22.9512 -6.17969 -35.3096 -9.70996h35.3096zM228.235 63.9443
c-67.8232 22.4707 -128.438 22.9043 -180.566 0h180.566zM406.069 80.707v-16.7637h60.0273l-1.76562 0.882812c-17.5654 7.90527 -36.8799 13.1846 -57.9404 15.8467c-0.106445 0.0107422 -0.214844 0.0234375 -0.321289 0.0341797zM464.331 391.447
c-63.5586 22.0684 -135.062 22.0684 -199.503 1.76562v-316.029c20.6006 7.3252 40.4229 12.8535 59.4648 16.6328l0.5625 0.140625c19.4414 4.02246 38.3711 6.00293 56.4072 5.95215c31.54 0.209961 60.4385 -5.33301 86.6006 -16.5449v307.2h-1.7666zM46.7861 391.447
l-0.882812 -0.881836h-1.7666v-308.083c1.73828 0.727539 3.4834 1.43066 5.23535 2.10938c55.0635 21.4326 118.559 19.5469 188.58 -4.36133c3.05566 -0.984375 6.125 -1.99121 9.21973 -3.0459v316.028c-63.5576 21.1865 -137.71 20.3027 -200.386 -1.76562z
M17.6553 390.565v-326.621h8.82812v326.621h-8.82812zM17.6553 37.4609h300.138v8.82812h-300.138v-8.82812zM388.414 -6.67676v26.4824v26.4834v17.6553v17.6543c-16.7734 0 -34.4277 -0.882812 -52.9658 -4.41406v-13.2402v-17.6553v-26.4834v-26.4824l26.4824 19.4209z
M494.345 37.4609v8.82812h-88.2754v-8.82812h88.2754zM485.517 63.9443h8.82812v326.621h-8.82812v-326.621z" />
    <glyph glyph-name="uniF121" unicode="&#xf121;" 
d="M160.348 -33.4385c-3.17578 -3.17578 -7.14453 -4.7627 -11.5107 -4.7627c-4.36523 0 -8.33496 1.58691 -11.5098 4.7627c-6.35059 6.35059 -6.35059 16.6699 0 23.0195l202.419 202.419l-202.419 202.419c-6.35059 6.34961 -6.35059 16.6689 0 23.0195
s16.6699 6.35059 23.0205 0l213.929 -213.929c6.34961 -6.34961 6.34961 -16.6699 0 -23.0195z" />
    <glyph glyph-name="uniF103" unicode="&#xf103;" 
d="M512 202.309v-20.624h-245.689v-245.685h-20.6299v245.685h-245.681v20.624h245.681v245.691h20.6299v-245.691h245.689z" />
    <glyph glyph-name="uniF12E" unicode="&#xf12e;" 
d="M483.832 419.836c18.7744 -18.7754 28.1631 -41.3926 28.1641 -67.835v-319.999c0 -26.4424 -9.38867 -49.0566 -28.167 -67.8359c-18.7705 -18.7783 -41.3857 -28.167 -67.8271 -28.167h-319.999c-26.4424 0 -49.0566 9.38867 -67.835 28.167
c-18.7754 18.7793 -28.1641 41.3945 -28.1641 67.8359v319.999c0 26.4424 9.38867 49.0566 28.1641 67.835c18.7783 18.7744 41.3926 28.1641 67.835 28.1641h320.002c26.4424 0 49.0576 -9.38965 67.8271 -28.1641zM391.67 250.998
c13.999 10.0049 25.6699 22.1152 35.002 36.3369c-12.4424 -5.55469 -25.8828 -9.33105 -40.3232 -11.334c15.1045 8.88965 25.4443 21.8906 30.998 38.9971c-14.4395 -8.44043 -29.335 -14.1104 -44.6689 -16.999c-13.5537 14.668 -30.5576 22.0029 -51.0068 22.0029
c-19.3311 0 -35.833 -6.83594 -49.4961 -20.502c-13.668 -13.6689 -20.502 -30.166 -20.502 -49.502c0 -6.44238 0.557617 -11.7783 1.66602 -16c-28.665 1.55371 -55.5557 8.7793 -80.666 21.667c-25.1074 12.8877 -46.4453 30.1084 -63.999 51.665
c-6.44434 -11.1113 -9.66406 -22.8877 -9.66406 -35.334c0 -25.333 10.1104 -44.7744 30.333 -58.333c-10.4463 0.225586 -21.5576 3.11426 -33.332 8.66602v-0.666992c0 -16.665 5.55566 -31.4971 16.6689 -44.499c11.1113 -13 24.7764 -21.0479 40.998 -24.1641
c-6.44238 -1.77344 -12.1113 -2.66113 -17 -2.66113c-2.8877 0 -7.2207 0.44043 -12.9961 1.32812c4.66699 -14.001 12.9434 -25.5547 24.834 -34.665c11.8877 -9.12109 25.3906 -13.7842 40.499 -14c-25.7793 -20.0059 -54.7793 -30.0049 -87.0029 -30.0049
c-5.77441 0 -11.333 0.334961 -16.666 0.998047c32.8906 -20.8799 68.668 -31.332 107.331 -31.332c24.8877 0 48.2246 3.94727 69.9971 11.8428c21.7822 7.88281 40.4463 18.4434 56.0029 31.6592c15.5537 13.2207 28.9434 28.4482 40.1582 45.668
c11.2275 17.2207 19.5625 35.2207 25.0039 54.002c5.44141 18.7725 8.16699 37.4951 8.16699 56.1631c0 4.00684 -0.113281 7.00098 -0.335938 9.00098z" />
    <glyph glyph-name="uniF100" unicode="&#xf100;" 
d="M466.989 332.649c24.8584 0 45.0107 -20.1514 45.0107 -45.0098s-20.1523 -45.0117 -45.0107 -45.0117c-6.2373 0 -12.1777 1.26953 -17.5781 3.56348l-94.2881 -94.2891c2.29395 -5.40039 3.5625 -11.3408 3.5625 -17.5771
c0 -24.8584 -20.1523 -45.0107 -45.0107 -45.0107s-45.0107 20.1523 -45.0107 45.0107c0 6.23633 1.26953 12.1768 3.5625 17.5771l-56.3242 56.3242c-5.40039 -2.29297 -11.3408 -3.5625 -17.5771 -3.5625c-6.2373 0 -12.1777 1.26953 -17.5781 3.5625l-94.2891 -94.2881
c2.29395 -5.40039 3.5625 -11.3408 3.5625 -17.5771c0 -24.8584 -20.1523 -45.0107 -45.0107 -45.0107s-45.0107 20.1523 -45.0107 45.0107c0 24.8594 20.1523 45.0117 45.0107 45.0117c6.2373 0 12.1777 -1.27051 17.5781 -3.56445l94.2891 94.2881
c-2.29297 5.40039 -3.5625 11.3408 -3.5625 17.5771c0 24.8584 20.1523 45.0107 45.0107 45.0107s45.0107 -20.1523 45.0107 -45.0107c0 -6.2373 -1.26953 -12.1777 -3.5625 -17.5781l56.3232 -56.3232c5.40039 2.29297 11.3408 3.56348 17.5781 3.56348
s12.1777 -1.27051 17.5781 -3.56348l94.2881 94.2891c-2.29395 5.40039 -3.5625 11.3408 -3.5625 17.5771c0 24.8584 20.1523 45.0107 45.0107 45.0107z" />
    <glyph glyph-name="uniF125" unicode="&#xf125;" 
d="M128 288c0 70.6924 57.3076 128 128 127.999c70.6924 0 128 -57.3076 128 -127.999s-57.3086 -128 -128.001 -128c-70.6914 0 -127.999 57.3076 -127.999 128zM384 128.001c70.6914 0 127.999 -57.3086 127.999 -128.001v-31.999h-4.0332h-503.933h-4.0332v31.999
c0 70.6924 57.3076 128.001 128 128.001h256z" />
    <glyph glyph-name="uniF10F" unicode="&#xf10f;" 
d="M230.4 -64v240h-64v86.4004h64v73.5996c0 57.5996 38.3994 112 124.8 112c35.2002 0 60.7998 -3.2002 60.7998 -3.2002l-3.2002 -80h-54.3994c-32 0 -35.2002 -12.7998 -35.2002 -38.3994c0 -19.2002 0 41.5996 0 -64h92.7998l-3.2002 -86.4004h-89.5996v-240h-92.7998z
" />
  </font>
</defs>
</svg>
